<?xml version="1.0" encoding="UTF-8" standalone="no"?>
<!-- Created with Inkscape (http://www.inkscape.org/) -->

<svg
   width="32"
   height="32"
   viewBox="0 0 8.4666666 8.4666665"
   version="1.1"
   id="svg1"
   inkscape:version="1.3.1 (9b9bdc1480, 2023-11-25, custom)"
   sodipodi:docname="compartir.svg"
   xmlns:inkscape="http://www.inkscape.org/namespaces/inkscape"
   xmlns:sodipodi="http://sodipodi.sourceforge.net/DTD/sodipodi-0.dtd"
   xmlns="http://www.w3.org/2000/svg"
   xmlns:svg="http://www.w3.org/2000/svg">
  <sodipodi:namedview
     id="namedview1"
     pagecolor="#000000"
     bordercolor="#000000"
     borderopacity="0.25"
     inkscape:showpageshadow="2"
     inkscape:pageopacity="0.0"
     inkscape:pagecheckerboard="0"
     inkscape:deskcolor="#d1d1d1"
     inkscape:document-units="mm"
     inkscape:zoom="23.033894"
     inkscape:cx="20.42642"
     inkscape:cy="15.672556"
     inkscape:window-width="1920"
     inkscape:window-height="1011"
     inkscape:window-x="955"
     inkscape:window-y="1112"
     inkscape:window-maximized="1"
     inkscape:current-layer="path3" />
  <defs
     id="defs1" />
  <g
     inkscape:label="Capa 1"
     inkscape:groupmode="layer"
     id="layer1">
    <g
       id="path3">
      <path
         id="path6"
         style="color:#000000;fill:#ffffff;stroke:none;stroke-width:0.2;stroke-linecap:round;stroke-dasharray:none;stroke-opacity:1"
         d="M 0.29868978 4.1480672 C 0.33421406 5.6143968 1.5434125 6.8026855 3.0179036 6.8026855 C 3.4007341 6.8026855 3.7651586 6.7221425 4.0963908 6.5778931 C 3.7334575 6.364579 3.4203668 6.0746284 3.1801676 5.7303996 C 3.1266854 5.7355104 3.0728248 5.738151 3.0179036 5.738151 C 2.1191351 5.738151 1.3992357 5.0377239 1.3647746 4.1480672 L 0.29868978 4.1480672 z M 2.8344523 4.1480672 C 2.8699765 5.6143996 4.0791721 6.8026855 5.5536662 6.8026855 C 7.0281602 6.8026855 8.2373558 5.6143996 8.27288 4.1480672 L 7.2067952 4.1480672 C 7.1723342 5.0377255 6.4524366 5.738151 5.5536662 5.738151 C 4.6548956 5.738151 3.9349982 5.0377255 3.9005371 4.1480672 L 2.8344523 4.1480672 z M 4.6715495 4.1480672 C 4.6586871 4.4748617 4.5527915 4.7753813 4.3795776 5.025533 C 4.6034575 5.3046568 4.9256758 5.5005235 5.2958008 5.5634847 C 5.5638008 5.1538812 5.7233604 4.6685366 5.736084 4.1480672 L 4.6715495 4.1480672 z " />
      <path
         id="path10"
         style="color:#000000;fill:#ffffff;stroke:none;stroke-width:0.2;stroke-linecap:round;stroke-dasharray:none;stroke-opacity:1"
         d="M 8.27288,4.1558364 C 8.2373557,2.6895068 7.0281573,1.5012181 5.5536662,1.5012181 c -0.3828305,0 -0.747255,0.080543 -1.0784872,0.2247924 0.3629333,0.2133141 0.676024,0.5032647 0.9162232,0.8474935 0.053482,-0.00511 0.1073428,-0.00775 0.162264,-0.00775 0.8987685,0 1.6186679,0.7004271 1.653129,1.5900838 z m -2.5357625,0 C 5.7015935,2.689504 4.4923977,1.5012181 3.0179036,1.5012181 c -1.474494,0 -2.68368962,1.1882859 -2.71921382,2.6546183 H 1.3647746 c 0.034461,-0.8896583 0.7543586,-1.5900838 1.653129,-1.5900838 0.8987706,0 1.618668,0.7004255 1.6531291,1.5900838 z m -1.8370972,0 C 3.9128827,3.8290419 4.0187783,3.5285223 4.1919922,3.2783706 3.9681123,2.9992468 3.645894,2.8033801 3.275769,2.7404189 3.007769,3.1500224 2.8482094,3.635367 2.8354858,4.1558364 Z" />
    </g>
  </g>
</svg>
